<svg id="Layer_1" height="512" viewBox="0 0 512 512" width="512" xmlns="http://www.w3.org/2000/svg" data-name="Layer 1"><path d="m358.329 199.1v50.549a102.471 102.471 0 1 1 -204.942 0v-50.549z" fill="#97c9fa"/><path d="m358.329 13.446v185.656h-204.811-.131v-185.656z" fill="#deedfd"/><path d="m268.075 350.57a102.485 102.485 0 0 1 -84.646-100.919v-50.551h-30.042v50.549a102.424 102.424 0 0 0 117.513 101.356c-.946-.14-1.891-.27-2.825-.435z" fill="#5eb9f7"/><path d="m153.387 13.446v185.656h.131 29.911v-185.656z" fill="#c4dff7"/><path d="m309.923 471.987h-108.129a25.044 25.044 0 0 0 -25.034 25.035v1.532h158.2v-1.532a25.044 25.044 0 0 0 -25.037-25.035z" fill="#c4dff7"/><path d="m273.973 350.77v121.217h-35.973v-121.217l.03-.2a103.266 103.266 0 0 0 35.9-.04z" fill="#d2e8f9"/><g fill="#284268"><path d="m183 173.4a6 6 0 0 0 6-6v-57.99a6 6 0 1 0 -12 0v57.99a6 6 0 0 0 6 6z"/><path d="m183 93.287a6 6 0 0 0 6-6v-17.614a6 6 0 0 0 -12 0v17.614a6 6 0 0 0 6 6z"/><path d="m183 53.287a6 6 0 0 0 6-6v-4.807a6 6 0 1 0 -12 0v4.807a6 6 0 0 0 6 6z"/><path d="m358.33 8h-204.66a5.538 5.538 0 0 0 -5.67 5.776v235.881a108.312 108.312 0 0 0 84 105.643v110.7h-29.986a30.786 30.786 0 0 0 -31.014 30.693v1.531a5.825 5.825 0 0 0 6.014 5.776h157.972a5.825 5.825 0 0 0 6.014-5.776v-1.531a30.786 30.786 0 0 0 -31.014-30.693h-29.986v-110.7a108.312 108.312 0 0 0 84-105.642v-235.882a5.538 5.538 0 0 0 -5.67-5.776zm-48.344 470a18.931 18.931 0 0 1 18.469 14h-144.91a18.931 18.931 0 0 1 18.469-14zm-65.986-12v-108.682a107.958 107.958 0 0 0 24 0v108.682zm108-273h-131a6 6 0 0 0 0 12h131v44.657c0 53.116-42.883 96.33-96 96.33s-96-43.214-96-96.33v-44.657h21a6 6 0 0 0 0-12h-21v-173h192z"/></g></svg>